<?xml version="1.0" encoding="utf-8"?>
<!-- Generator: Adobe Illustrator 22.1.0, SVG Export Plug-In . SVG Version: 6.00 Build 0)  -->
<svg version="1.1" id="レイヤー_1" xmlns="http://www.w3.org/2000/svg" xmlns:xlink="http://www.w3.org/1999/xlink" x="0px"
	 y="0px" viewBox="0 0 396.9 343.7" style="enable-background:new 0 0 396.9 343.7;" xml:space="preserve">
<g>
	<g>
		<path d="M316,343.7c-2.1,0-4.1-0.8-5.5-2.3c-1.5-1.5-2.3-3.5-2.3-5.5c0-2,0.8-4.1,2.3-5.5c1.4-1.4,3.4-2.3,5.5-2.3
			c2,0,4.1,0.8,5.5,2.3c1.5,1.5,2.3,3.5,2.3,5.5c0,2-0.8,4-2.3,5.5C320.1,342.8,318,343.7,316,343.7z"/>
		<path d="M344.3,326.9c-2.1-3.8-0.8-8.5,3-10.6l0,0l0,0l0,0c3.8-2.1,8.5-0.8,10.6,3l0,0c2.1,3.7,0.8,8.5-3,10.6l0,0
			c-1.2,0.7-2.5,1-3.8,1l0,0C348.4,330.9,345.8,329.5,344.3,326.9z M374.5,304.9c-3.6-2.4-4.6-7.2-2.2-10.8l0,0l0,0l0,0
			c2.4-3.6,7.2-4.6,10.8-2.2l0,0c3.6,2.4,4.6,7.2,2.2,10.8l0,0c-1.5,2.3-4,3.5-6.5,3.5l0,0C377.4,306.2,375.9,305.8,374.5,304.9z"/>
		<path d="M389.1,270.6c-2.1,0-4.1-0.8-5.5-2.3c-1.5-1.5-2.3-3.5-2.3-5.5c0-2,0.8-4.1,2.3-5.5c1.4-1.4,3.4-2.3,5.5-2.3
			c2,0,4.1,0.8,5.5,2.3c1.5,1.5,2.3,3.5,2.3,5.5c0,2-0.8,4-2.3,5.5C393.1,269.8,391.1,270.6,389.1,270.6z"/>
	</g>
	<g>
		<g>
			<path d="M162,343.5c-2,0-4.1-0.8-5.5-2.3c-1.4-1.5-2.3-3.5-2.3-5.5s0.8-4.1,2.3-5.5c1.5-1.4,3.5-2.3,5.5-2.3c2,0,4.1,0.8,5.5,2.3
				c1.4,1.5,2.3,3.5,2.3,5.5s-0.8,4-2.3,5.5C166.1,342.7,164.1,343.5,162,343.5z"/>
			<path d="M190.3,326.8c-2.1-3.8-0.7-8.5,3-10.6l0,0l0,0l0,0c3.8-2.1,8.5-0.8,10.6,3l0,0c2.1,3.7,0.8,8.5-3,10.6l0,0
				c-1.2,0.7-2.5,1-3.8,1l0,0C194.4,330.8,191.8,329.3,190.3,326.8z M220.6,304.7c-3.6-2.4-4.6-7.2-2.2-10.8l0,0l0,0l0,0
				c2.4-3.6,7.2-4.6,10.8-2.2l0,0c3.6,2.4,4.6,7.2,2.3,10.8l0,0c-1.5,2.3-4,3.5-6.5,3.5l0,0C223.4,306,221.9,305.6,220.6,304.7z"/>
		</g>
		<g>
			<path d="M316,343.7c-2.1,0-4.1-0.8-5.5-2.3c-1.5-1.5-2.3-3.5-2.3-5.5c0-2,0.8-4.1,2.3-5.5c1.4-1.4,3.4-2.3,5.5-2.3
				c2,0,4.1,0.8,5.5,2.3c1.5,1.5,2.3,3.5,2.3,5.5c0,2-0.8,4-2.3,5.5C320.1,342.8,318,343.7,316,343.7z"/>
			<path d="M277.1,329.9c-3.8-2.1-5.1-6.8-3-10.6l0,0c2.1-3.8,6.8-5.1,10.6-3l0,0c3.8,2.1,5.1,6.8,3,10.6l0,0c-1.4,2.6-4.1,4-6.8,4
				l0,0C279.6,330.9,278.3,330.6,277.1,329.9z M246.7,302.6C246.7,302.6,246.7,302.6,246.7,302.6L246.7,302.6
				c-2.4-3.6-1.4-8.4,2.2-10.8l0,0c3.6-2.4,8.4-1.4,10.8,2.2l0,0c2.4,3.6,1.4,8.4-2.2,10.8l0,0c-1.3,0.9-2.8,1.3-4.3,1.3l0,0
				C250.6,306.2,248.2,304.9,246.7,302.6z"/>
		</g>
	</g>
	<g>
		<path d="M46.2,79.9c0-54.7-1-63.4-31.5-66l-12.9-1C-1.2,10.8-0.2,1.5,2.9,0c25.8,1,43.3,1.5,65,1.5c20.6,0,38.2-0.5,64-1.5
			c3.1,1.5,4.1,10.8,1,12.9l-12.9,1c-30.4,2.6-31.5,11.3-31.5,66v183.6c0,54.7,1,61.9,31.5,65.5l12.9,1.5c3.1,2.1,2.1,11.3-1,12.9
			c-25.8-1-43.3-1.5-64-1.5c-21.7,0-39.2,0.5-65,1.5c-3.1-1.5-4.1-9.8-1-12.9l12.9-1.5c30.4-3.6,31.5-10.8,31.5-65.5V79.9z"/>
	</g>
	<path d="M309.1,190.7H255l0,0c-4.5,0-8.2-3.7-8.2-8.2l0,0v-54.2c0-4.3-3.5-7.8-7.8-7.8c-4.3,0-7.8,3.5-7.8,7.8v54.2l0,0
		c0,4.5-3.7,8.2-8.2,8.2l0,0h-54.2c-4.3,0-7.8,3.5-7.8,7.8c0,4.3,3.5,7.8,7.8,7.8h54.2l-0.1,0c4.5,0,8.2,3.7,8.2,8.2l0,0v54.2
		c0,4.3,3.5,7.8,7.8,7.8c4.3,0,7.8-3.5,7.8-7.8v-54.1l0,0c0-4.5,3.7-8.2,8.2-8.2l0,0h54.2c4.3,0,7.8-3.5,7.8-7.8
		C316.9,194.1,313.4,190.7,309.1,190.7z"/>
</g>
</svg>
